<svg width="300" height="300" viewBox="0 0 300 300" fill="none" xmlns="http://www.w3.org/2000/svg">
<path fill-rule="evenodd" clip-rule="evenodd" d="M12.2831 238.18L229 6L286.717 61.8197L70.5 293.5L12.2831 238.18Z" fill="url(#paint0_linear)"/>
<path opacity="0.3" fill-rule="evenodd" clip-rule="evenodd" d="M84 161.5L159 81L216.5 137L142 217L84 161.5Z" fill="url(#paint1_linear)"/>
<path opacity="0.2" d="M84 161.5L70.5 175.822V293.5L84 161.5Z" fill="url(#paint2_linear)"/>
<path opacity="0.2" d="M229 6.5L215.5 138L229 123.5L229 6.5Z" fill="url(#paint3_linear)"/>
<path d="M296.5 46V293.5H241.5L70.5 125V293.5L3 253.5V6H58L229 175V6L296.5 46Z" fill="url(#paint4_linear)"/>
<defs>
<linearGradient id="paint0_linear" x1="256.999" y1="37.4935" x2="24.7384" y2="238.839" gradientUnits="userSpaceOnUse">
<stop stop-color="#D8F6DD"/>
<stop offset="1" stop-color="#C3E2F0"/>
</linearGradient>
<linearGradient id="paint1_linear" x1="159" y1="81.5" x2="84" y2="162" gradientUnits="userSpaceOnUse">
<stop stop-color="#60DBC0" stop-opacity="0"/>
<stop offset="0.186754" stop-color="#00996E"/>
<stop offset="0.826765" stop-color="#227D88"/>
<stop offset="1" stop-color="#3FC7D6" stop-opacity="0"/>
</linearGradient>
<linearGradient id="paint2_linear" x1="71" y1="293.5" x2="84" y2="160" gradientUnits="userSpaceOnUse">
<stop stop-color="#005382"/>
<stop offset="1" stop-color="#07A4FD" stop-opacity="0"/>
</linearGradient>
<linearGradient id="paint3_linear" x1="229" y1="6.5" x2="216" y2="138.5" gradientUnits="userSpaceOnUse">
<stop stop-color="#009106"/>
<stop offset="1" stop-color="#00FF0A" stop-opacity="0"/>
</linearGradient>
<linearGradient id="paint4_linear" x1="49.4904" y1="236.304" x2="260.626" y2="78.6744" gradientUnits="userSpaceOnUse">
<stop stop-color="#07A4FD"/>
<stop offset="1" stop-color="#96FD9A"/>
</linearGradient>
</defs>
</svg>
