<svg width="1008" height="300" viewBox="0 0 1008 300" fill="none" xmlns="http://www.w3.org/2000/svg">
<path fill-rule="evenodd" clip-rule="evenodd" d="M15.2831 238.18L232 6L289.717 61.8197L73.5 293.5L15.2831 238.18Z" fill="url(#paint0_linear)"/>
<path opacity="0.3" fill-rule="evenodd" clip-rule="evenodd" d="M87 161.5L162 81L219.5 137L145 217L87 161.5Z" fill="url(#paint1_linear)"/>
<path opacity="0.2" d="M87 161.5L73.5 175.822V293.5L87 161.5Z" fill="url(#paint2_linear)"/>
<path opacity="0.2" d="M232 6.5L218.5 138L232 123.5L232 6.5Z" fill="url(#paint3_linear)"/>
<path d="M299.5 46V293.5H244.5L73.5 125V293.5L6 253.5V6H61L232 175V6L299.5 46Z" fill="url(#paint4_linear)"/>
<path d="M493.4 106.5V221.5H467.4L414.4 158.1V221.5H383.4V106.5H409.4L462.4 170.1V106.5H493.4Z" fill="#343434"/>
<path d="M598.62 221.5L571.62 182.5H570.02H541.82V221.5H509.42V81.5H570.02C582.42 81.5 593.154 83.5667 602.22 87.7C611.42 91.8333 618.487 97.7 623.42 105.3C628.354 112.9 630.82 121.9 630.82 132.3C630.82 142.7 628.287 151.7 623.22 159.3C618.287 166.767 611.22 172.5 602.02 176.5L633.42 221.5H598.62ZM598.02 132.3C598.02 124.433 595.487 118.433 590.42 114.3C585.354 110.033 577.954 107.9 568.22 107.9H541.82V156.7H568.22C577.954 156.7 585.354 154.567 590.42 150.3C595.487 146.033 598.02 140.033 598.02 132.3Z" fill="#343434"/>
<path d="M752.891 195.5V221.5H644.491V81.5H750.291V107.5H676.691V137.9H741.691V163.1H676.691V195.5H752.891Z" fill="#343434"/>
<path d="M827.27 81.5C839.67 81.5 850.404 83.5667 859.47 87.7C868.67 91.8333 875.737 97.7 880.67 105.3C885.604 112.9 888.07 121.9 888.07 132.3C888.07 142.567 885.604 151.567 880.67 159.3C875.737 166.9 868.67 172.767 859.47 176.9C850.404 180.9 839.67 182.9 827.27 182.9H799.07V221.5H766.67V81.5H827.27ZM825.47 156.5C835.204 156.5 842.604 154.433 847.67 150.3C852.737 146.033 855.27 140.033 855.27 132.3C855.27 124.433 852.737 118.433 847.67 114.3C842.604 110.033 835.204 107.9 825.47 107.9H799.07V156.5H825.47Z" fill="#343434"/>
<path d="M899.202 81.5H931.602V195.1H1001.8V221.5H899.202V81.5Z" fill="#343434"/>
<defs>
<linearGradient id="paint0_linear" x1="259.999" y1="37.4935" x2="27.7384" y2="238.839" gradientUnits="userSpaceOnUse">
<stop stop-color="#D8F6DD"/>
<stop offset="1" stop-color="#C3E2F0"/>
</linearGradient>
<linearGradient id="paint1_linear" x1="162" y1="81.5" x2="87" y2="162" gradientUnits="userSpaceOnUse">
<stop stop-color="#60DBC0" stop-opacity="0"/>
<stop offset="0.186754" stop-color="#00996E"/>
<stop offset="0.826765" stop-color="#227D88"/>
<stop offset="1" stop-color="#3FC7D6" stop-opacity="0"/>
</linearGradient>
<linearGradient id="paint2_linear" x1="74" y1="293.5" x2="87" y2="160" gradientUnits="userSpaceOnUse">
<stop stop-color="#005382"/>
<stop offset="1" stop-color="#07A4FD" stop-opacity="0"/>
</linearGradient>
<linearGradient id="paint3_linear" x1="232" y1="6.5" x2="219" y2="138.5" gradientUnits="userSpaceOnUse">
<stop stop-color="#009106"/>
<stop offset="1" stop-color="#00FF0A" stop-opacity="0"/>
</linearGradient>
<linearGradient id="paint4_linear" x1="52.4904" y1="236.304" x2="263.626" y2="78.6744" gradientUnits="userSpaceOnUse">
<stop stop-color="#07A4FD"/>
<stop offset="1" stop-color="#96FD9A"/>
</linearGradient>
</defs>
</svg>
